<svg id="Ebene_1" data-name="Ebene 1" xmlns="http://www.w3.org/2000/svg" viewBox="0 0 1114 500"><defs><style>.cls-1{fill:#ffdc0f;}</style></defs><title>Trusted-Shops_Logo_rectangle</title><rect class="cls-1" x="1" y="1.35" width="1112" height="497.3"/><g id="shops"><path d="M481.64,368.7A40,40,0,0,0,499,373c7.19,0,11-3,11-7.5,0-4.31-3.28-6.77-11.59-9.74-11.5-4-19-10.37-19-20.42,0-11.8,9.85-20.83,26.17-20.83A42.34,42.34,0,0,1,523.2,318l-3.49,12.62a32.79,32.79,0,0,0-14.47-3.29c-6.77,0-10.05,3.08-10.05,6.67,0,4.41,3.9,6.36,12.82,9.75,12.21,4.52,18,10.88,18,20.63,0,11.59-8.93,21.44-27.91,21.44-7.9,0-15.7-2.05-19.6-4.21Z"/><path d="M550.18,315.65v26.57h25.76V315.65h15.6v69.16h-15.6V355.87H550.18v28.94h-15.7V315.65Z"/><path d="M667,349.51c0,22.67-13.75,36.42-34,36.42-20.52,0-32.53-15.49-32.53-35.19,0-20.73,13.24-36.22,33.66-36.22C655.39,314.52,667,330.42,667,349.51Zm-50,.92c0,13.55,6.36,23.09,16.83,23.09s16.62-10.06,16.62-23.5c0-12.42-6-23.09-16.72-23.09C623.17,326.93,617,337,617,350.43Z"/><path d="M675.85,316.57A128,128,0,0,1,697,315.13c9.64,0,16.52,1.85,21.13,5.54a20.21,20.21,0,0,1,7.39,16c0,6.77-2.26,12.52-6.36,16.42-5.34,5-13.24,7.28-22.47,7.28a40.52,40.52,0,0,1-5.34-.3v24.73H675.85ZM691.34,348a23.82,23.82,0,0,0,5.23.41c8.32,0,13.45-4.21,13.45-11.29,0-6.36-4.42-10.16-12.21-10.16a26.53,26.53,0,0,0-6.47.62Z"/><path d="M733.67,368.7A39.94,39.94,0,0,0,751,373c7.18,0,11-3,11-7.5,0-4.31-3.29-6.77-11.6-9.74-11.49-4-19-10.37-19-20.42,0-11.8,9.85-20.83,26.17-20.83A42.29,42.29,0,0,1,775.22,318l-3.48,12.62a32.83,32.83,0,0,0-14.47-3.29c-6.78,0-10.06,3.08-10.06,6.67,0,4.41,3.9,6.36,12.83,9.75,12.21,4.52,18,10.88,18,20.63,0,11.59-8.92,21.44-27.91,21.44-7.9,0-15.7-2.05-19.59-4.21Z"/></g><g id="trusted"><path d="M494.28,243.15H475.61V230h53.44v13.2h-19v56.33H494.28Z"/><path d="M535,230.88A137.32,137.32,0,0,1,556,229.43c10.32,0,17.54,1.55,22.49,5.47,4.12,3.3,6.39,8.15,6.39,14.55,0,8.87-6.29,14.95-12.27,17.12v.31c4.85,2,7.53,6.6,9.28,13,2.17,7.84,4.33,16.92,5.68,19.6h-16.1c-1.13-2-2.78-7.64-4.85-16.2-1.85-8.66-4.84-11-11.24-11.14H550.6v27.34H535Zm15.58,29.91h6.18c7.84,0,12.49-3.92,12.49-10,0-6.4-4.34-9.6-11.56-9.7a38.66,38.66,0,0,0-7.11.52Z"/><path d="M609.71,230v40c0,12,4.54,18.06,12.59,18.06,8.25,0,12.79-5.78,12.79-18.06V230h15.68v39c0,21.46-10.83,31.67-29,31.67-17.53,0-27.85-9.69-27.85-31.87V230Z"/><path d="M662,283.28a40.07,40.07,0,0,0,17.44,4.34c7.22,0,11-3,11-7.54,0-4.33-3.3-6.8-11.65-9.8-11.56-4-19.09-10.41-19.09-20.52,0-11.87,9.91-20.95,26.31-20.95a42.5,42.5,0,0,1,17.74,3.51L700.26,245a33,33,0,0,0-14.54-3.3c-6.81,0-10.11,3.09-10.11,6.7,0,4.44,3.92,6.4,12.89,9.8,12.28,4.54,18.06,10.94,18.06,20.74,0,11.66-9,21.56-28.06,21.56-8,0-15.79-2.06-19.71-4.23Z"/><path d="M728.32,243.15H709.65V230h53.44v13.2h-19v56.33H728.32Z"/><path d="M810.42,270.08H784.84v16.5h28.58v12.9H769.06V230H812v12.89H784.84v14.45h25.58Z"/><path d="M823.17,230.88a140.17,140.17,0,0,1,21.26-1.45c13.2,0,21.76,2.38,28.47,7.43,7.22,5.36,11.76,13.93,11.76,26.2,0,13.31-4.85,22.49-11.56,28.17-7.32,6.08-18.46,9-32.08,9a137.32,137.32,0,0,1-17.85-1ZM839,287.62a29.8,29.8,0,0,0,5.47.3c14.23.11,23.52-7.73,23.52-24.34.1-14.44-8.36-22.08-21.87-22.08a32.64,32.64,0,0,0-7.12.62Z"/></g><g id="simplified-e"><path d="M342.16,115.73a113,113,0,1,0,113,113A113,113,0,0,0,342.16,115.73Zm-.94,183.81a71.2,71.2,0,1,1,71.19-71.2A71.2,71.2,0,0,1,341.22,299.54Z"/><path d="M372.16,250.7C361.8,266,347.4,280,328,280c-20.48,0-32.41-12.83-32.41-33.54,0-33.53,24.76-66.39,59.65-66.39,11.7,0,27.46,4.72,27.46,18.9,0,25.44-39.84,34-59.42,38.94A82.16,82.16,0,0,0,322,250.7c0,8.78,4.72,16.88,14.4,16.88,12.61,0,22.73-12.15,30.16-21.16ZM361.35,196c0-5.18-2.92-9.23-8.32-9.23-16.21,0-24.53,31.51-27.69,43.89C340.42,226.17,361.35,213.79,361.35,196Z"/></g></svg>